# xmcd
# 
# Track frame offsets:
#     150
#     19047
#     35855
#     51585
#     67232
#     88192
#     100535
#     115970
#     130522
#     143475
#     159295
#     173970
# 
# Disc length: 2496
# 
# Revision: 10
# Processed by: cddbd v1.5.2PL0 Copyright (c) Steve Scherf et al.
# Submitted via: fre:ac v1.0.31
# 
DISCID=a209be0c
DTITLE=Alejandro Fernández - Niña Amada Mía
DYEAR=2003
DGENRE=Ranchero
TTITLE0=Por Qué No Estas Conmigo
TTITLE1=Como Quisiera
TTITLE2=Que Poca
TTITLE3=Me Está Matando Este Amor
TTITLE4=Mujer
TTITLE5=Que Valga La Pena
TTITLE6=Por Aquí Pasó
TTITLE7=Niña Amada Mía
TTITLE8=La Mujer Ideal
TTITLE9=Déjame
TTITLE10=La Reina Es El Rey
TTITLE11=Mátalas
EXTD=
EXTT0=
EXTT1=
EXTT2=
EXTT3=
EXTT4=
EXTT5=
EXTT6=
EXTT7=
EXTT8=
EXTT9=
EXTT10=
EXTT11=
PLAYORDER=
